<svg width="705" height="705" viewBox="0 0 705 705" fill="none" xmlns="http://www.w3.org/2000/svg">
<circle cx="352.5" cy="352.5" r="352.5" fill="white"/>
<path d="M505.339 331.174C504.869 331.217 503.372 331.366 502.024 331.473C470.952 334.275 441.848 351.04 423.414 376.809C413.15 391.136 406.585 407.389 404.104 424.603C403.227 430.612 403.12 432.387 403.12 440.535C403.12 448.682 403.227 450.457 404.104 456.466C410.049 497.546 439.282 532.061 478.929 544.849C486.029 547.137 493.513 548.698 502.024 549.639C505.339 550.003 519.667 550.003 522.981 549.639C537.673 548.014 550.118 544.379 562.393 538.113C564.275 537.151 564.639 536.894 564.382 536.68C564.211 536.552 556.192 525.795 546.569 512.793L529.076 489.163L507.157 456.723C495.096 438.888 485.173 424.304 485.088 424.304C485.002 424.282 484.917 438.696 484.874 456.295C484.81 487.11 484.788 488.351 484.403 489.078C483.847 490.126 483.42 490.553 482.522 491.024C481.837 491.366 481.238 491.43 478.009 491.43H474.31L473.326 490.81C472.685 490.404 472.214 489.869 471.893 489.249L471.444 488.287L471.487 445.41L471.551 402.513L472.214 401.679C472.556 401.23 473.283 400.652 473.797 400.374C474.673 399.947 475.016 399.904 478.715 399.904C483.078 399.904 483.805 400.075 484.938 401.315C485.259 401.658 497.127 419.535 511.327 441.069C525.526 462.604 544.943 492.008 554.481 506.442L571.802 532.681L572.679 532.104C580.442 527.057 588.654 519.872 595.154 512.387C608.99 496.498 617.908 477.124 620.902 456.466C621.778 450.457 621.885 448.682 621.885 440.535C621.885 432.387 621.778 430.612 620.902 424.603C614.957 383.523 585.724 349.009 546.077 336.221C539.084 333.954 531.642 332.393 523.302 331.452C521.249 331.238 507.114 331.003 505.339 331.174V331.174ZM550.118 397.338C551.145 397.851 551.979 398.835 552.278 399.861C552.449 400.417 552.492 412.307 552.449 439.102L552.385 477.552L545.606 467.159L538.806 456.766V428.816C538.806 410.746 538.891 400.588 539.02 400.096C539.362 398.899 540.11 397.958 541.137 397.402C542.014 396.953 542.334 396.91 545.692 396.91C548.857 396.91 549.413 396.953 550.118 397.338V397.338Z" fill="black"/>
<path d="M570.73 533.149C569.982 533.619 569.747 533.94 570.41 533.577C570.88 533.299 571.65 532.721 571.522 532.7C571.457 532.7 571.094 532.914 570.73 533.149ZM569.255 534.111C568.87 534.411 568.87 534.432 569.34 534.197C569.597 534.068 569.811 533.919 569.811 533.876C569.811 533.705 569.704 533.748 569.255 534.111ZM568.186 534.753C567.801 535.052 567.801 535.074 568.271 534.838C568.528 534.71 568.742 534.56 568.742 534.518C568.742 534.346 568.635 534.389 568.186 534.753ZM567.116 535.394C566.731 535.694 566.731 535.715 567.202 535.48C567.459 535.352 567.672 535.202 567.672 535.159C567.672 534.988 567.565 535.031 567.116 535.394ZM565.491 536.25C564.679 536.677 564.721 536.848 565.534 536.442C565.897 536.25 566.175 536.057 566.175 536.014C566.175 535.865 566.154 535.886 565.491 536.25Z" fill="black"/>
<path d="M189.729 325.882C195.33 322.674 202.625 322.659 208.221 325.882C236.375 341.799 264.538 357.692 292.687 373.619C297.981 376.603 301.523 382.498 301.469 388.602V484.367C301.508 490.724 297.617 496.76 292.031 499.677C263.97 515.506 235.923 531.355 207.867 547.185C202.15 550.456 194.708 550.204 189.17 546.665C180.757 541.785 172.33 536.93 163.916 532.055C162.197 531.029 160.259 530.213 159.045 528.545C160.118 527.098 162.037 526.918 163.596 526.286C167.108 525.168 170.333 523.375 173.559 521.635C174.375 521.076 175.371 521.29 176.153 521.79C183.347 525.917 190.477 530.164 197.695 534.252C199.235 535.141 200.794 533.96 202.11 533.226C229.647 517.654 257.218 502.141 284.75 486.564C285.77 486.073 286.334 484.989 286.251 483.871C286.27 452.281 286.256 420.684 286.261 389.093C286.377 387.825 285.643 386.658 284.497 386.139C256.533 370.382 228.583 354.6 200.624 338.839C200.14 338.506 199.566 338.327 198.978 338.326C198.39 338.326 197.816 338.503 197.331 338.834C169.371 354.6 141.427 370.396 113.468 386.153C112.325 386.673 111.558 387.82 111.694 389.093C111.699 420.684 111.694 452.281 111.694 483.876C111.646 484.422 111.766 484.969 112.038 485.444C112.309 485.92 112.72 486.3 113.215 486.535C120.676 490.768 128.147 494.972 135.613 499.191C139.819 501.456 144.983 502.802 149.617 501.066C153.706 499.599 156.572 495.423 156.494 491.079C156.533 459.673 156.475 428.261 156.523 396.86C156.421 395.465 157.743 394.313 159.098 394.445C162.683 394.42 166.272 394.396 169.857 394.454C171.354 394.42 172.384 395.922 172.198 397.326C172.184 428.932 172.237 460.538 172.174 492.143C172.184 500.566 168.725 509.732 160.939 513.853C151.346 518.825 139.489 517.771 130.012 513.003C121.807 508.906 113.978 504.07 105.919 499.681C100.319 496.781 96.4465 490.72 96.4859 484.368V388.602C96.4272 382.372 100.109 376.369 105.569 373.429C133.625 357.586 161.677 341.732 189.729 325.882Z" fill="#8CC84B"/>
<path d="M214.205 392.219C226.442 391.431 239.542 391.752 250.553 397.784C259.079 402.406 263.805 412.106 263.955 421.583C263.717 422.861 262.382 423.567 261.162 423.479C257.612 423.474 254.061 423.527 250.51 423.455C249.004 423.513 248.129 422.123 247.94 420.791C246.92 416.257 244.448 411.766 240.183 409.579C233.635 406.299 226.043 406.464 218.903 406.532C213.69 406.809 208.085 407.26 203.669 410.327C200.279 412.651 199.249 417.34 200.459 421.117C201.6 423.829 204.729 424.704 207.289 425.511C222.036 429.37 237.662 428.986 252.128 434.064C258.116 436.135 263.975 440.159 266.025 446.433C268.706 454.842 267.531 464.893 261.552 471.643C256.703 477.198 249.641 480.222 242.597 481.864C233.227 483.954 223.503 484.007 213.987 483.079C205.039 482.059 195.728 479.707 188.821 473.606C182.914 468.475 180.029 460.479 180.315 452.762C180.384 451.459 181.68 450.55 182.928 450.657C186.504 450.628 190.079 450.618 193.654 450.662C195.082 450.56 196.141 451.794 196.214 453.141C196.874 457.461 198.496 461.996 202.262 464.557C209.528 469.248 218.645 468.926 226.966 469.058C233.859 468.752 241.596 468.659 247.222 464.101C250.189 461.501 251.069 457.151 250.267 453.408C249.398 450.249 246.095 448.777 243.258 447.814C228.7 443.206 212.899 444.878 198.482 439.668C192.629 437.598 186.969 433.685 184.721 427.669C181.583 419.154 183.021 408.622 189.627 402.099C196.068 395.611 205.365 393.112 214.205 392.218V392.219Z" fill="#8CC84B"/>
<path d="M327.103 84H361.15V241.43C343.704 244.745 330.925 246.068 316.95 246.068C275.428 246.068 253.786 227.296 253.786 191.295C253.786 156.618 276.757 134.095 312.312 134.095C317.837 134.095 322.062 134.534 327.109 135.86L327.103 84ZM327.103 163.245C323.128 161.922 319.816 161.48 315.621 161.48C298.396 161.48 288.451 172.082 288.451 190.633C288.451 208.745 297.947 218.68 315.426 218.68C319.179 218.68 322.27 218.459 327.126 217.802L327.103 163.245ZM415.22 136.52V215.365C415.22 242.535 413.231 255.561 407.271 266.822C401.746 277.645 394.459 284.489 379.444 292L347.861 276.985C362.876 269.92 370.165 263.738 374.836 254.235C379.694 244.485 381.238 233.253 381.238 203.665V136.52H415.22ZM381.209 84.182H415.22V119.077H381.209V84.182Z" fill="#092E20"/>
</svg>
