<svg xmlns="http://www.w3.org/2000/svg" width="380" height="380" viewBox="0 0 380 380">
  <g id="Grupo_5" data-name="Grupo 5" transform="translate(-1206 -3277)">
    <g id="Elipse_2" data-name="Elipse 2" transform="translate(1206 3277)" fill="#fff" stroke="#707070" stroke-width="1">
      <circle cx="190" cy="190" r="190" stroke="none"/>
      <circle cx="190" cy="190" r="189.5" fill="none"/>
    </g>
    <g id="logo-javascript" transform="translate(1349 3336)">
      <path id="Trazado_39" data-name="Trazado 39" d="M0,0H95V95H0Z" fill="#f0db4f"/>
      <path id="Trazado_40" data-name="Trazado 40" d="M338.756,506.483c-.7-4.335-3.522-7.974-11.893-11.369-2.908-1.337-6.15-2.294-7.116-4.5a4.905,4.905,0,0,1-.172-2.781c.623-2.52,3.63-3.305,6.014-2.583a6.617,6.617,0,0,1,3.865,3.585c4.1-2.655,4.091-2.637,6.953-4.461a17.72,17.72,0,0,0-2.294-3.07c-2.465-2.754-5.825-4.172-11.2-4.064-.93.117-1.869.244-2.8.361a12.7,12.7,0,0,0-6.737,3.973c-4.5,5.1-3.215,14.033,2.258,17.709,5.391,4.046,13.311,4.967,14.322,8.75.984,4.633-3.4,6.132-7.766,5.6-3.215-.668-5-2.3-6.935-5.274-3.558,2.059-3.558,2.059-7.215,4.163a16.056,16.056,0,0,0,3.233,4.4c6.881,6.981,24.1,6.637,27.191-3.928A13.045,13.045,0,0,0,338.756,506.483ZM303.176,477.8H294.29c0,7.676-.036,15.3-.036,22.973,0,4.885.253,9.365-.542,10.737-1.3,2.7-4.669,2.366-6.2,1.842a7.627,7.627,0,0,1-3.278-3.4,4.574,4.574,0,0,0-.506-.813q-3.617,2.208-7.224,4.425a14.279,14.279,0,0,0,5.238,6,17.25,17.25,0,0,0,12.7,1.562,11.219,11.219,0,0,0,7.17-5.617c2.023-3.73,1.589-8.245,1.571-13.239C303.221,494.121,303.176,485.975,303.176,477.8Z" transform="translate(-251.531 -434.141)" fill="#323330"/>
    </g>
    <path id="redux" d="M69.05,66.073a7.123,7.123,0,0,0-.761-14.2h-.253a7.1,7.1,0,0,0-6.848,7.355,7.283,7.283,0,0,0,2.029,4.692c-4.312,8.5-10.906,14.711-20.8,19.911a34.294,34.294,0,0,1-20.671,3.932C16.042,87,11.6,84.462,8.813,80.276A18.629,18.629,0,0,1,7.8,60.62a29.852,29.852,0,0,1,8.623-10.146c-.507-1.649-1.268-4.439-1.649-6.467C-3.615,57.322-1.712,75.331,3.867,83.827,8.052,90.169,16.549,94.1,25.933,94.1a31.194,31.194,0,0,0,7.609-.888C49.774,90.042,62.075,80.4,69.05,66.073ZM91.37,50.347c-9.638-11.287-23.841-17.5-40.074-17.5H49.267a6.969,6.969,0,0,0-6.214-3.8H42.8a7.1,7.1,0,0,0,.254,14.2h.253a7.144,7.144,0,0,0,6.214-4.312H51.8a48.334,48.334,0,0,1,27.012,8.243A33.973,33.973,0,0,1,92.257,63.409c2.156,5.326,2.029,10.526-.254,14.965-3.551,6.721-9.511,10.4-17.373,10.4A32.435,32.435,0,0,1,62.2,86.11c-1.395,1.268-3.931,3.3-5.707,4.566a39.151,39.151,0,0,0,16.359,3.931c12.174,0,21.178-6.722,24.6-13.443,3.677-7.356,3.424-20.038-6.087-30.817ZM26.948,68.228a7.123,7.123,0,0,0,7.1,6.848H34.3a7.1,7.1,0,0,0-.254-14.2H33.8a2.16,2.16,0,0,0-.888.127,46.466,46.466,0,0,1-6.594-28.154A34.019,34.019,0,0,1,33.8,13.189c3.677-4.692,10.779-6.975,15.6-7.1,13.442-.254,19.148,16.486,19.529,23.208,1.649.38,4.439,1.268,6.341,1.9C73.742,10.653,61.061,0,48.887,0,37.473,0,26.948,8.243,22.763,20.418c-5.833,16.233-2.029,31.831,5.073,44.133a5.7,5.7,0,0,0-.888,3.678Z" transform="translate(1436 3477)" fill="#764abc"/>
    <g id="react-2" transform="translate(1078.3 3399)">
      <path id="Trazado_50" data-name="Trazado 50" d="M281.936,125.314c0-7.038-8.813-13.707-22.325-17.843,3.118-13.772,1.732-24.729-4.374-28.237a9.494,9.494,0,0,0-4.851-1.213v4.829a5.014,5.014,0,0,1,2.469.563c2.945,1.689,4.223,8.12,3.226,16.392-.238,2.035-.628,4.179-1.1,6.366a104.94,104.94,0,0,0-13.75-2.36,105.631,105.631,0,0,0-9.008-10.827c7.059-6.561,13.685-10.156,18.19-10.156V78c-5.955,0-13.75,4.244-21.633,11.607-7.882-7.319-15.678-11.52-21.633-11.52v4.829c4.482,0,11.13,3.573,18.19,10.091a102.274,102.274,0,0,0-8.943,10.805,101.121,101.121,0,0,0-13.772,2.382c-.5-2.165-.866-4.266-1.126-6.28-1.018-8.272.238-14.7,3.162-16.414a4.819,4.819,0,0,1,2.49-.563V78.108a9.655,9.655,0,0,0-4.894,1.213c-6.085,3.508-7.449,14.443-4.309,28.172C184.47,111.651,175.7,118.3,175.7,125.314c0,7.038,8.813,13.707,22.325,17.843-3.118,13.772-1.732,24.729,4.374,28.237a9.519,9.519,0,0,0,4.872,1.213c5.955,0,13.75-4.244,21.633-11.607,7.882,7.319,15.678,11.52,21.633,11.52a9.655,9.655,0,0,0,4.894-1.213c6.085-3.508,7.449-14.443,4.309-28.172,13.426-4.136,22.2-10.805,22.2-17.821Zm-28.194-14.443c-.8,2.793-1.8,5.673-2.923,8.553-.888-1.732-1.819-3.465-2.837-5.2-1-1.732-2.057-3.421-3.118-5.067C247.938,109.615,250.905,110.178,253.742,110.871Zm-9.918,23.062c-1.689,2.923-3.421,5.7-5.219,8.272-3.226.281-6.5.433-9.788.433-3.27,0-6.54-.152-9.744-.411q-2.7-3.865-5.24-8.229-2.469-4.255-4.5-8.618c1.343-2.9,2.858-5.8,4.482-8.64,1.689-2.923,3.421-5.7,5.219-8.272,3.226-.282,6.5-.433,9.788-.433,3.27,0,6.54.152,9.744.411q2.7,3.865,5.24,8.229,2.469,4.255,4.5,8.618C246.942,128.194,245.448,131.1,243.824,133.933Zm6.994-2.815c1.169,2.9,2.165,5.8,2.988,8.618-2.837.693-5.825,1.278-8.922,1.732,1.061-1.667,2.122-3.378,3.118-5.132,1-1.732,1.927-3.486,2.815-5.219Zm-21.957,23.105a89.279,89.279,0,0,1-6.02-6.929c1.949.087,3.941.152,5.955.152,2.035,0,4.049-.043,6.02-.152A84.513,84.513,0,0,1,228.861,154.223ZM212.75,141.468c-3.075-.455-6.042-1.018-8.878-1.711.8-2.793,1.8-5.673,2.923-8.553.888,1.732,1.819,3.465,2.837,5.2S211.689,139.823,212.75,141.468Zm16-45.062a89.277,89.277,0,0,1,6.02,6.929c-1.949-.087-3.941-.152-5.955-.152-2.035,0-4.049.043-6.02.152A84.52,84.52,0,0,1,228.753,96.406ZM212.729,109.16c-1.061,1.667-2.122,3.378-3.118,5.132-1,1.732-1.927,3.465-2.815,5.2-1.169-2.9-2.165-5.8-2.988-8.618,2.837-.671,5.825-1.256,8.922-1.711Zm-19.6,27.111c-7.666-3.27-12.624-7.557-12.624-10.957s4.959-7.709,12.624-10.957c1.862-.8,3.9-1.516,6-2.187A104,104,0,0,0,204,125.358a102.54,102.54,0,0,0-4.807,13.122C197.051,137.809,195.016,137.073,193.132,136.271Zm11.65,30.944c-2.945-1.689-4.223-8.12-3.226-16.392.238-2.035.628-4.179,1.1-6.366a104.937,104.937,0,0,0,13.75,2.36,105.629,105.629,0,0,0,9.008,10.827c-7.059,6.561-13.685,10.156-18.19,10.156A5.168,5.168,0,0,1,204.782,167.215Zm51.364-16.5c1.018,8.272-.238,14.7-3.161,16.414a4.819,4.819,0,0,1-2.49.563c-4.482,0-11.13-3.573-18.19-10.091a102.272,102.272,0,0,0,8.943-10.805,101.118,101.118,0,0,0,13.772-2.382A60.616,60.616,0,0,1,256.145,150.715Zm8.337-14.443c-1.862.8-3.9,1.516-6,2.187a104,104,0,0,0-4.872-13.187,102.534,102.534,0,0,0,4.807-13.122c2.144.671,4.179,1.408,6.085,2.209,7.666,3.27,12.624,7.557,12.624,10.957C277.107,128.714,272.148,133.023,264.482,136.271Z" fill="#61dafb"/>
      <circle id="Elipse_1" data-name="Elipse 1" cx="9.896" cy="9.896" r="9.896" transform="translate(218.9 115.418)" fill="#61dafb"/>
    </g>
  </g>
</svg>
