<svg width="680" height="690" viewBox="0 0 680 690" fill="none" xmlns="http://www.w3.org/2000/svg">
<circle cx="340" cy="350" r="340" fill="white"/>
<g clip-path="url(#clip0)">
<path d="M323.466 209.288C305.034 209.288 291.745 221.308 291.745 239.339C291.745 257.37 306.704 269.39 325.135 269.39C336.271 269.39 346.087 264.982 352.164 257.553L339.393 250.174C336.02 253.864 330.895 256.017 325.135 256.017C317.138 256.017 310.343 251.844 307.823 245.166H354.602C354.969 243.296 355.186 241.359 355.186 239.322C355.186 221.308 341.897 209.288 323.466 209.288V209.288ZM307.672 233.496C309.759 226.834 315.469 222.644 323.449 222.644C331.446 222.644 337.156 226.834 339.226 233.496H307.672ZM503.237 209.288C484.806 209.288 471.517 221.308 471.517 239.339C471.517 257.37 486.475 269.39 504.907 269.39C516.042 269.39 525.859 264.982 531.936 257.553L519.164 250.174C515.792 253.864 510.666 256.017 504.907 256.017C496.91 256.017 490.115 251.844 487.594 245.166H534.373C534.74 243.296 534.958 241.359 534.958 239.322C534.958 221.308 521.668 209.288 503.237 209.288V209.288ZM487.46 233.496C489.547 226.834 495.257 222.644 503.237 222.644C511.234 222.644 516.944 226.834 519.014 233.496H487.46ZM422.3 239.339C422.3 249.356 428.844 256.034 438.995 256.034C445.873 256.034 451.032 252.912 453.686 247.82L466.508 255.216C461.199 264.064 451.249 269.39 438.995 269.39C420.547 269.39 407.274 257.37 407.274 239.339C407.274 221.308 420.564 209.288 438.995 209.288C451.249 209.288 461.182 214.614 466.508 223.462L453.686 230.858C451.032 225.766 445.873 222.644 438.995 222.644C428.861 222.644 422.3 229.322 422.3 239.339ZM560 190.924V267.72H544.975V190.924H560ZM149.688 182.576L211.376 289.424H88L149.688 182.576ZM303.916 190.924L257.654 271.059L211.392 190.924H228.739L257.654 241.009L286.57 190.924H303.916ZM402.266 210.958V227.135C400.596 226.651 398.827 226.317 396.924 226.317C387.224 226.317 380.229 232.995 380.229 243.012V267.72H365.203V210.958H380.229V226.317C380.229 217.836 390.095 210.958 402.266 210.958Z" fill="black"/>
</g>
<g clip-path="url(#clip1)">
<path d="M262.191 481.358C262.191 485.741 262.663 489.295 263.489 491.901C264.432 494.507 265.612 497.35 267.264 500.431C267.854 501.378 268.09 502.326 268.09 503.155C268.09 504.34 267.382 505.524 265.848 506.709L258.415 511.685C257.353 512.395 256.292 512.751 255.348 512.751C254.168 512.751 252.988 512.159 251.808 511.092C250.157 509.315 248.741 507.42 247.561 505.524C246.381 503.511 245.201 501.26 243.903 498.535C234.701 509.434 223.139 514.883 209.217 514.883C199.306 514.883 191.401 512.04 185.62 506.354C179.839 500.667 176.89 493.086 176.89 483.608C176.89 473.539 180.429 465.365 187.626 459.205C194.823 453.045 204.379 449.964 216.532 449.964C220.543 449.964 224.672 450.32 229.038 450.912C233.403 451.504 237.886 452.452 242.606 453.518V444.87C242.606 435.867 240.718 429.588 237.061 425.916C233.285 422.244 226.914 420.467 217.829 420.467C213.7 420.467 209.453 420.94 205.087 422.007C200.722 423.073 196.475 424.376 192.345 426.034C190.458 426.864 189.042 427.338 188.216 427.575C187.39 427.811 186.8 427.93 186.328 427.93C184.676 427.93 183.851 426.745 183.851 424.258V418.453C183.851 416.557 184.087 415.136 184.676 414.306C185.266 413.477 186.328 412.648 187.98 411.819C192.109 409.686 197.065 407.909 202.846 406.488C208.627 404.948 214.762 404.237 221.251 404.237C235.291 404.237 245.555 407.435 252.162 413.833C258.651 420.23 261.955 429.944 261.955 442.975V481.358H262.191ZM214.29 499.364C218.183 499.364 222.195 498.654 226.442 497.232C230.689 495.81 234.465 493.204 237.65 489.65C239.538 487.399 240.954 484.912 241.662 482.068C242.37 479.225 242.842 475.79 242.842 471.762V466.786C239.42 465.957 235.763 465.246 231.987 464.773C228.212 464.299 224.554 464.062 220.897 464.062C212.992 464.062 207.211 465.602 203.318 468.8C199.424 471.999 197.536 476.501 197.536 482.424C197.536 487.992 198.952 492.138 201.902 494.981C204.733 497.943 208.863 499.364 214.29 499.364V499.364ZM309.03 512.159C306.906 512.159 305.49 511.803 304.546 510.974C303.602 510.263 302.777 508.605 302.069 506.354L274.343 414.78C273.635 412.411 273.281 410.871 273.281 410.042C273.281 408.146 274.225 407.08 276.113 407.08H287.675C289.917 407.08 291.45 407.435 292.276 408.265C293.22 408.976 293.928 410.634 294.636 412.885L314.457 491.309L332.862 412.885C333.452 410.516 334.16 408.976 335.104 408.265C336.048 407.554 337.699 407.08 339.823 407.08H349.262C351.503 407.08 353.037 407.435 353.981 408.265C354.925 408.976 355.751 410.634 356.223 412.885L374.864 492.256L395.275 412.885C395.983 410.516 396.808 408.976 397.634 408.265C398.578 407.554 400.112 407.08 402.236 407.08H413.208C415.096 407.08 416.158 408.028 416.158 410.042C416.158 410.634 416.04 411.226 415.922 411.937C415.804 412.648 415.568 413.596 415.096 414.899L386.662 506.472C385.954 508.842 385.128 510.382 384.184 511.092C383.24 511.803 381.707 512.277 379.701 512.277H369.555C367.313 512.277 365.779 511.922 364.835 511.092C363.891 510.263 363.066 508.723 362.594 506.354L344.306 429.944L326.137 506.235C325.547 508.605 324.839 510.145 323.895 510.974C322.952 511.803 321.3 512.159 319.176 512.159H309.03ZM460.637 515.357C454.502 515.357 448.367 514.646 442.468 513.225C436.568 511.803 431.967 510.263 428.9 508.486C427.012 507.42 425.714 506.235 425.242 505.169C424.77 504.103 424.534 502.918 424.534 501.852V495.81C424.534 493.323 425.478 492.138 427.248 492.138C427.956 492.138 428.664 492.256 429.372 492.493C430.079 492.73 431.141 493.204 432.321 493.678C436.332 495.455 440.698 496.877 445.299 497.824C450.018 498.772 454.62 499.246 459.339 499.246C466.772 499.246 472.553 497.943 476.564 495.337C480.576 492.73 482.699 488.939 482.699 484.082C482.699 480.765 481.638 478.041 479.514 475.79C477.39 473.539 473.379 471.525 467.598 469.63L450.49 464.299C441.878 461.574 435.507 457.546 431.613 452.215C427.72 447.003 425.714 441.198 425.714 435.038C425.714 430.062 426.776 425.679 428.9 421.888C431.023 418.097 433.855 414.78 437.394 412.174C440.934 409.449 444.945 407.435 449.664 406.014C454.384 404.592 459.339 404 464.53 404C467.126 404 469.839 404.118 472.435 404.474C475.149 404.829 477.626 405.303 480.104 405.777C482.464 406.369 484.705 406.962 486.829 407.672C488.953 408.383 490.604 409.094 491.784 409.805C493.436 410.752 494.616 411.7 495.324 412.766C496.031 413.714 496.385 415.017 496.385 416.676V422.244C496.385 424.731 495.442 426.034 493.672 426.034C492.728 426.034 491.194 425.561 489.189 424.613C482.464 421.533 474.913 419.993 466.536 419.993C459.811 419.993 454.502 421.059 450.844 423.31C447.187 425.561 445.299 428.996 445.299 433.853C445.299 437.17 446.479 440.013 448.839 442.264C451.198 444.515 455.564 446.766 461.817 448.78L478.57 454.111C487.065 456.835 493.2 460.626 496.857 465.483C500.515 470.34 502.285 475.908 502.285 482.068C502.285 487.162 501.223 491.783 499.217 495.81C497.093 499.838 494.262 503.392 490.604 506.235C486.947 509.197 482.582 511.329 477.508 512.869C472.199 514.528 466.654 515.357 460.637 515.357V515.357Z" fill="#252F3E"/>
<path fill-rule="evenodd" clip-rule="evenodd" d="M482.935 572.931C444.119 601.718 387.724 617 339.233 617C271.275 617 210.043 591.767 163.794 549.83C160.136 546.513 163.44 542.012 167.805 544.618C217.829 573.76 279.534 591.412 343.362 591.412C386.426 591.412 433.737 582.408 477.272 563.928C483.761 560.966 489.306 568.192 482.935 572.931V572.931Z" fill="#FF9900"/>
<path fill-rule="evenodd" clip-rule="evenodd" d="M499.099 554.451C494.144 548.053 466.3 551.37 453.676 552.91C449.9 553.384 449.311 550.067 452.732 547.58C474.913 531.942 511.369 536.444 515.617 541.656C519.864 546.987 514.437 583.593 493.672 601.126C490.486 603.85 487.419 602.429 488.835 598.875C493.554 587.147 504.054 560.729 499.099 554.451V554.451Z" fill="#FF9900"/>
</g>
<defs>
<clipPath id="clip0">
<rect width="472" height="472" fill="white" transform="translate(88)"/>
</clipPath>
<clipPath id="clip1">
<rect width="362" height="213" fill="white" transform="translate(159 404)"/>
</clipPath>
</defs>
</svg>
