<svg xmlns="http://www.w3.org/2000/svg" xmlns:xlink="http://www.w3.org/1999/xlink" width="492.001" height="543.655" viewBox="0 0 492.001 543.655">
  <defs>
    <linearGradient id="linear-gradient" x1="0.141" y1="0.451" x2="1.272" y2="0.451" gradientUnits="objectBoundingBox">
      <stop offset="0" stop-color="gray" stop-opacity="0.251"/>
      <stop offset="0.54" stop-color="gray" stop-opacity="0.122"/>
      <stop offset="1" stop-color="gray" stop-opacity="0.102"/>
    </linearGradient>
  </defs>
  <g id="Grupo_1" data-name="Grupo 1" transform="translate(-681.862 -223.92)">
    <path id="Trazado_14" data-name="Trazado 14" d="M718,257c-14.35-70.72-75.85-124-150.67-124-59.45,0-110.7,33.82-136.33,83-61.5,6.15-109.67,58.42-109.67,122,0,67.64,55.34,123,123,123h266.5c56.37,0,102.5-46.13,102.5-102.5A101.25,101.25,0,0,0,718,257ZM600.12,317.45v77.9h-65.6v-77.9h-69.7L567.32,215l102.5,102.5Z" transform="translate(360.532 90.92)" fill="#ff006f"/>
    <path id="Trazado_45" data-name="Trazado 45" d="M612.69,305.71a7.35,7.35,0,0,0-8.79-.43c-2,1.48-2.87,3.94-3.69,6.26-1.2,3.43-3.14,6.76-3.46,10.39-.89,10-7.9,18.41-10,28.21-.77,3.5-.92,7.18-2.37,10.45a31.482,31.482,0,0,1-2.4,4.13,109.3,109.3,0,0,0-9,17.43c-1.74.53-3.17,2.2-4.56,3.53a17,17,0,0,1-6.25,3.8,6.17,6.17,0,0,0-2.59,1.27c-1,1.06-1,2.77-1.83,4a5.92,5.92,0,0,1-2.28,1.87,8.546,8.546,0,0,1-.14-.86c-.21-1.53-.38-3.06-.54-4.59a17.32,17.32,0,0,0-2.36-22.35,33.628,33.628,0,0,1,.21-7.16,3.15,3.15,0,0,0-1-3.18c-.49-.31-1.09-.38-1.61-.64a6.531,6.531,0,0,1-1.88-1.93,9,9,0,0,0-11.48-1.7c-2.8,1.87-4.28,5.19-6.67,7.58-1.24,1.23-2.71,2.2-3.94,3.43a17.74,17.74,0,0,0-4.58,9.53,51.887,51.887,0,0,0-.43,10.72,9.8,9.8,0,0,0,.46,3.2,8.41,8.41,0,0,0,1.46,2.32,27.78,27.78,0,0,0,11.24,8.69,4.852,4.852,0,0,1,.05.64,4.263,4.263,0,0,1-.08,1l-.49-.08c-1.8-.22-3.7,0-5.37-.69-2.85-1.23-4-4.85-6.81-6.27a4.158,4.158,0,0,0-.73-.3,46.359,46.359,0,0,0-4.07-13.44c-1-2-2.13-4.08-2.25-6.34a16.132,16.132,0,0,1,1.39-6.09,157.35,157.35,0,0,0,5.34-21q1.36-6.69,2.74-13.38a20.1,20.1,0,0,0,3.26-3.81,18.56,18.56,0,0,0,3.26-9.43,12.79,12.79,0,0,0-3.3-9.27,5.48,5.48,0,0,0-4.11-2,5,5,0,0,0-3.44,2,16.449,16.449,0,0,0-2.6,5.68c-1,3.32-2,6.78-1.55,10.22.41,2.85,1.8,5.94.38,8.44-4.68,8.19-7.91,17.4-11.38,26.18a43.911,43.911,0,0,0-2.18,6.5,34.39,34.39,0,0,0-.36,10.86,143.438,143.438,0,0,0,3.91,20.09c.73,3,1.59,6.17,3.31,8.64a37.26,37.26,0,0,0-.44,10.16,5.62,5.62,0,0,0,.6,2.25,9.581,9.581,0,0,0,2.06,2.11,10.27,10.27,0,0,1,3.27,7.84,23.26,23.26,0,0,0,1.57,8c2.39,7.13,4.79,14.26,6.88,21.49a14.111,14.111,0,0,1,.74,4.15c0,2-.95,4-.51,6a21.372,21.372,0,0,1,.82,2.77,7.18,7.18,0,0,1-.28,2.15c-1.3,5.65-5.06,18.68-4.41,24.45l1.29-.45c-.55,7.64-2.91,15.12-3.77,22.76a74.8,74.8,0,0,0,.18,16.72,58.842,58.842,0,0,1,.64,7.49c0,2.25-.36,4.47-.45,6.71a61.13,61.13,0,0,0,.53,9,92.994,92.994,0,0,0,2.23,13.89c2.08,7.76.68,15.84.91,23.88a145.353,145.353,0,0,1-.17,16.83c-.21,2.37-.54,4.73-.61,7.11-.21,7.06,1.88,14.09,1.14,21.11-.35,3.29-1.19,7,.88,9.59.66.81,1.55,1.39,2.25,2.16a3,3,0,0,1,.87,2.85c-.27.79-1,1.37-1.17,2.2-.19,1.3,1.24,2.2,2.48,2.62l.35.1a3.09,3.09,0,0,0,.89,2.36,5.3,5.3,0,0,0,2.67,1.06l16,3.1c3.57.69,7.45,1.34,10.8.13a2.74,2.74,0,0,0,.75,1.27,5.3,5.3,0,0,0,2.66,1.06l16,3.1c4.08.79,8.56,1.52,12.2-.5a6.86,6.86,0,0,0,2.57-2.39,7.41,7.41,0,0,0,.35-6.25,5.11,5.11,0,0,0-1.78-2.59,6.639,6.639,0,0,0-3.72-.8,7.339,7.339,0,0,1-3.22-.49,2.389,2.389,0,0,1-.8-.68c.8-1,1.57-2,2.3-3-.69-.16-1-1.11-1.17-1.81-2.06-10.38.83-21,1.25-31.6a67.3,67.3,0,0,0-1.24-15.83c-.39-2-.86-3.9-1.14-5.88-1.47-10.33,2.46-20.82,1.21-31.18-.59-4.84,1.49-9.9,2.23-14.72.65-4.28.23-8.64-.19-13l-3.31-34c-.45-4.59-.92-9.29-2.88-13.47a17.639,17.639,0,0,1-1.36-7.39c4-2.29,7.68-5.44,12.2-5.45.87-3.3-1.63-13.71-3.09-16.79a73.25,73.25,0,0,1-6.51-38.95c.53-4.79-1.38-9.62-.74-14.4a8.671,8.671,0,0,1,.92-3.21,3.31,3.31,0,0,1,2.66-1.77c-.28-2.87-.65-5.76-1.14-8.63a21,21,0,0,0,4-5.75c2.08-4.35,3-9.15,4.21-13.81,2.2-8.21,5.56-16.05,8.22-24.11s2.14-16.58,4.05-24.86a18.24,18.24,0,0,1,7.8-11.09c1.52-1,3.25-1.77,4.3-3.25a7.42,7.42,0,0,0,1.2-4.09A10.47,10.47,0,0,0,612.69,305.71ZM551.57,655.59c.3-.41.59-.82.86-1.25-1.06-.06-2.4-.68-2.53-1.74a11.289,11.289,0,0,1,.35-3.15,12.522,12.522,0,0,0-.33-5.51c-.37-1.24-.92-2.43-1.32-3.67a37.115,37.115,0,0,1-.93-4.21,71.912,71.912,0,0,0-4.55-14.79c-2-4.61-.45-9.64-.43-14.67,0-2.37-.36-4.79.24-7.09.35-1.36,1-2.62,1.37-4,.82-3.17-.21-6.5-1.22-9.61,3.95-9.34,4.48-20,5.29-30.16q.68-8.52,1.36-17c.2-2.53.43-5.16,1.76-7.32a87.26,87.26,0,0,1,4.19,22.31,33.851,33.851,0,0,0,.76,6.52c.63,2.37,1.86,4.52,2.68,6.82,1.82,5.06,1.63,10.59,2.45,15.9.33,2.15.83,4.27,1.15,6.42,1.38,9.49-.85,19.1-3.07,28.43-1.36,5.72-1.14,12.05-1.45,17.92-.29,5.63-.59,11.26-.45,16.9,0,1.72.11,3.48.09,5.23a12.782,12.782,0,0,0-1.64-.09,7.341,7.341,0,0,1-3.22-.49,3.671,3.671,0,0,1-1.41-1.7Z" transform="translate(360.532 90.92)" fill="url(#linear-gradient)"/>
    <path id="Trazado_46" data-name="Trazado 46" d="M586.45,663.39a6.74,6.74,0,0,1,3.72.79,5.18,5.18,0,0,1,1.78,2.58,7.33,7.33,0,0,1-.36,6.21,6.81,6.81,0,0,1-2.57,2.37c-3.64,2-8.12,1.29-12.2.51l-16-3.07a5.32,5.32,0,0,1-2.67-1,3.46,3.46,0,0,1-.47-4,7.66,7.66,0,0,1,3-3c4.6-2.86,10-4,15.28-4.61,2-.24,3.87-.88,5.37.51.8.73.76,1.64,1.88,2.23a7.481,7.481,0,0,0,3.24.48Z" transform="translate(360.532 90.92)" fill="#3f3d56"/>
    <path id="Trazado_47" data-name="Trazado 47" d="M556.22,657.89a6.7,6.7,0,0,1,3.71.79,5.06,5.06,0,0,1,1.78,2.58,7.29,7.29,0,0,1-.35,6.21,6.889,6.889,0,0,1-2.57,2.37c-3.64,2-8.12,1.29-12.21.51l-16-3.08a5.31,5.31,0,0,1-2.67-1,3.46,3.46,0,0,1-.48-4,7.85,7.85,0,0,1,3.05-3c4.59-2.85,10-3.95,15.28-4.6,2-.25,3.87-.88,5.37.5.79.73.76,1.64,1.87,2.23a7.4,7.4,0,0,0,3.22.49Z" transform="translate(360.532 90.92)" fill="#3f3d56"/>
    <path id="Trazado_48" data-name="Trazado 48" d="M552.28,487.89A192.226,192.226,0,0,0,524.65,490a5.521,5.521,0,0,0-1.75.46c-1.94,1-2,3.72-1.95,5.9.13,8.87-2.9,17.46-3.9,26.26a73.23,73.23,0,0,0,.17,16.61,62.056,62.056,0,0,1,.64,7.45c0,2.22-.37,4.43-.46,6.66a60.317,60.317,0,0,0,.52,8.9,91.848,91.848,0,0,0,2.23,13.8c2.07,7.71.67,15.74.89,23.72a141.264,141.264,0,0,1-.19,16.72c-.21,2.36-.54,4.7-.61,7.07-.21,7,1.87,14,1.13,21-.35,3.26-1.2,7,.87,9.52.66.8,1.55,1.38,2.24,2.15a3,3,0,0,1,.88,2.82c-.28.79-1.05,1.37-1.17,2.19-.2,1.29,1.23,2.19,2.47,2.6a22.86,22.86,0,0,0,25.79-9.27c-1.06-.06-2.4-.68-2.53-1.73a11.15,11.15,0,0,1,.35-3.13,12.19,12.19,0,0,0-.33-5.47c-.36-1.24-.92-2.42-1.31-3.65a37.116,37.116,0,0,1-.93-4.18,70.673,70.673,0,0,0-4.54-14.7c-2-4.58-.44-9.58-.42-14.56,0-2.36-.35-4.77.24-7.05.35-1.36,1-2.61,1.38-4,.82-3.15-.21-6.45-1.22-9.54,4-9.28,4.5-19.92,5.31-30l1.37-17c.2-2.51.44-5.13,1.76-7.27a86.131,86.131,0,0,1,4.19,22.16,32.774,32.774,0,0,0,.75,6.49c.63,2.34,1.85,4.48,2.68,6.77,1.81,5,1.62,10.51,2.44,15.79.33,2.14.82,4.24,1.14,6.38,1.38,9.43-.86,19-3.09,28.25-1.36,5.68-1.15,12-1.46,17.81-.3,5.59-.6,11.18-.46,16.78.12,5.15.52,10.68-2.25,15,3.1,1.58,6.3,3.19,9.76,3.49a17.25,17.25,0,0,0,11.23-3.4,36.5,36.5,0,0,0,8.23-8.63c-.7-.16-1-1.11-1.17-1.8-2.06-10.31.84-20.9,1.27-31.4a66.808,66.808,0,0,0-1.23-15.72c-.39-2-.87-3.89-1.15-5.85-1.45-10.26,2.48-20.69,1.24-31-.58-4.82,1.5-9.84,2.24-14.64.65-4.25.24-8.58-.18-12.86l-3.29-33.75c-.44-4.57-.91-9.24-2.87-13.39-2.34-5-.89-11.16-1.14-16.67a68.62,68.62,0,0,1-26.18,5.8Z" transform="translate(360.532 90.92)" fill="#46455b"/>
    <path id="Trazado_49" data-name="Trazado 49" d="M571.6,387.94a107.45,107.45,0,0,1,10.54-21.2,31.278,31.278,0,0,0,2.4-4.11c1.46-3.24,1.61-6.9,2.38-10.38,2.15-9.74,9.17-18.1,10.07-28,.32-3.61,2.26-6.92,3.47-10.33.81-2.31,1.73-4.75,3.69-6.22a7.4,7.4,0,0,1,8.78.42,10.33,10.33,0,0,1,3.55,8.41,7.4,7.4,0,0,1-1.2,4.06c-1.06,1.47-2.78,2.26-4.3,3.23a18.15,18.15,0,0,0-7.81,11c-1.92,8.23-1.4,16.68-4.07,24.69s-6,15.81-8.23,24c-1.25,4.63-2.14,9.4-4.23,13.72s-5.64,8.22-10.31,9.33a27.92,27.92,0,0,0-2.28-8.61C572.65,394.79,570.42,391.15,571.6,387.94Z" transform="translate(360.532 90.92)" fill="#a0616a"/>
    <path id="Trazado_50" data-name="Trazado 50" d="M521.29,399.35a45.619,45.619,0,0,0-4.44-16.83c-1-2-2.12-4-2.24-6.29a15.89,15.89,0,0,1,1.39-6.05,155.939,155.939,0,0,0,5.35-20.91l2.76-13.3a20.229,20.229,0,0,0,3.25-3.78,18.34,18.34,0,0,0,3.27-9.37,12.64,12.64,0,0,0-3.29-9.22,5.49,5.49,0,0,0-4.11-1.94,5,5,0,0,0-3.44,2,16.12,16.12,0,0,0-2.55,5.6c-1,3.3-2,6.73-1.56,10.15.4,2.83,1.8,5.9.37,8.38-4.69,8.15-7.92,17.29-11.4,26a43.781,43.781,0,0,0-2.17,6.46,34,34,0,0,0-.38,10.8,141.756,141.756,0,0,0,3.9,20c1,4.12,2.25,8.6,5.71,11.07C514.56,407.56,517.44,403.09,521.29,399.35Z" transform="translate(360.532 90.92)" fill="#a0616a"/>
    <circle id="Elipse_12" data-name="Elipse 12" cx="17.17" cy="17.17" r="17.17" transform="translate(884.162 457.08)" fill="#a0616a"/>
    <path id="Trazado_51" data-name="Trazado 51" d="M534.39,402.16c-.1,3.13-1.46,6.06-2.8,8.9-.81,1.71-1.87,3.62-3.72,4A83.243,83.243,0,0,0,544,419.69a17.74,17.74,0,0,0,5.76.33,13.838,13.838,0,0,0,4.59-1.7,23.54,23.54,0,0,0,11.67-17,31,31,0,0,1-6.39.17,4.68,4.68,0,0,1-3.27-1.21,4.91,4.91,0,0,1-.92-2.68q-.57-4.26-.91-8.54a33.84,33.84,0,0,0-12.25,2.81c-1.6.7-3.16,1.51-4.81,2.11-1,.36-3.89.43-4.59,1.08C531.8,396.09,534.45,400,534.39,402.16Z" transform="translate(360.532 90.92)" fill="#a0616a"/>
    <path id="Trazado_52" data-name="Trazado 52" d="M543,411.76a10.8,10.8,0,0,0-9.14-8.69c-1.8-.21-3.7,0-5.37-.67-2.85-1.23-4.05-4.82-6.81-6.23s-6.34-.1-8.38,2.26-2.9,5.57-3.52,8.57a41.5,41.5,0,0,0-.93,12.7,5.7,5.7,0,0,0,.61,2.24,9.711,9.711,0,0,0,2.05,2.1,10.14,10.14,0,0,1,3.27,7.78,22.8,22.8,0,0,0,1.56,8c2.39,7.08,4.79,14.17,6.87,21.35a13.849,13.849,0,0,1,.74,4.12c-.05,2-1,4-.51,5.95a23.249,23.249,0,0,1,.81,2.75,7.08,7.08,0,0,1-.28,2.14c-1.31,5.62-5.07,18.56-4.42,24.29,8.53-3.14,21.4-5,30.44-6a66.991,66.991,0,0,1,7.49-.44c6,0,12.29,1.13,17.89-1.07,5.19-2,9.5-6.82,15.08-6.84.87-3.27-1.63-13.61-3.08-16.67a72.22,72.22,0,0,1-6.48-38.69c.52-4.76-1.38-9.56-.73-14.31a8.56,8.56,0,0,1,.91-3.19,3.36,3.36,0,0,1,2.67-1.77,104.993,104.993,0,0,0-4.35-21.94c-.81-2.54-2.27-5.48-4.93-5.65-2.4-.16-4.17,2-5.9,3.69a17,17,0,0,1-6.25,3.77,6.15,6.15,0,0,0-2.6,1.27c-1,1.05-1,2.76-1.83,4-1.44,2.22-5.12,2.43-6,4.91a15.162,15.162,0,0,0-.39,2.22,7.92,7.92,0,0,1-2.36,3.78,15.24,15.24,0,0,1-6.13,4.27Z" transform="translate(360.532 90.92)" fill="#2f2e41"/>
    <path id="Trazado_53" data-name="Trazado 53" d="M552.79,363.74a3.1,3.1,0,0,0-1-3.15,15.192,15.192,0,0,0-1.62-.65A6.591,6.591,0,0,1,548.3,358a9,9,0,0,0-11.47-1.68c-2.81,1.86-4.28,5.16-6.68,7.53-1.23,1.23-2.7,2.19-3.94,3.42a17.65,17.65,0,0,0-4.59,9.46,51.314,51.314,0,0,0-.43,10.66,9.429,9.429,0,0,0,.46,3.18,8.45,8.45,0,0,0,1.46,2.3,27.3,27.3,0,0,0,11.81,8.86c4.7,1.66,10.19,1.46,14.39-1.23a2.559,2.559,0,0,0,1-1,3.15,3.15,0,0,0,0-1.92,13,13,0,0,1,.69-7.43,49.248,49.248,0,0,0,2.22-5.05,16.9,16.9,0,0,0,.16-6C552.89,374,552,368.86,552.79,363.74Z" transform="translate(360.532 90.92)" fill="#46455b"/>
  </g>
</svg>
