<svg width="615" height="615" viewBox="0 0 615 615" fill="none" xmlns="http://www.w3.org/2000/svg">
<circle cx="307.5" cy="307.5" r="307.5" fill="white"/>
<path d="M412 146.021C412 132.185 394.661 119.072 368.078 110.94C374.213 83.863 371.487 62.3205 359.473 55.4235C356.704 53.8057 353.466 53.0393 349.93 53.0393V62.5334C351.89 62.5334 353.466 62.9165 354.787 63.6403C360.581 66.9611 363.094 79.6056 361.135 95.8689C360.666 99.8709 359.899 104.086 358.962 108.386C350.612 106.342 341.496 104.767 331.91 103.745C326.159 95.8689 320.195 88.7165 314.188 82.4581C328.076 69.5581 341.112 62.4908 349.973 62.4908V52.9968C338.258 52.9968 322.922 61.3413 307.415 75.8165C291.908 61.4264 276.572 53.1671 264.857 53.1671V62.6611C273.675 62.6611 286.753 69.6858 300.641 82.5006C294.677 88.759 288.713 95.8689 283.047 103.745C273.419 104.767 264.303 106.342 255.953 108.428C254.973 104.171 254.249 100.041 253.738 96.0818C251.735 79.8185 254.206 67.174 259.957 63.8106C261.235 63.0443 262.897 62.7037 264.857 62.7037V53.2096C261.278 53.2096 258.04 53.976 255.229 55.5938C243.258 62.4908 240.574 83.9907 246.751 110.983C220.253 119.157 203 132.227 203 146.021C203 159.858 220.339 172.971 246.922 181.102C240.787 208.18 243.513 229.722 255.527 236.619C258.296 238.237 261.534 239.003 265.112 239.003C276.827 239.003 292.164 230.659 307.67 216.183C323.177 230.574 338.513 238.833 350.229 238.833C353.807 238.833 357.045 238.067 359.857 236.449C371.827 229.552 374.511 208.052 368.334 181.06C394.747 172.928 412 159.815 412 146.021V146.021ZM356.534 117.624C354.957 123.116 352.998 128.779 350.783 134.441C349.036 131.035 347.204 127.629 345.202 124.223C343.242 120.817 341.155 117.497 339.067 114.261C345.117 115.155 350.953 116.262 356.534 117.624ZM337.022 162.966C333.7 168.713 330.291 174.163 326.756 179.229C320.408 179.783 313.975 180.081 307.5 180.081C301.067 180.081 294.635 179.783 288.33 179.272C284.794 174.205 281.343 168.798 278.02 163.094C274.783 157.516 271.843 151.854 269.159 146.149C271.8 140.444 274.783 134.739 277.978 129.162C281.3 123.414 284.709 117.965 288.244 112.899C294.592 112.345 301.025 112.047 307.5 112.047C313.933 112.047 320.365 112.345 326.67 112.856C330.206 117.922 333.657 123.329 336.98 129.034C340.217 134.611 343.157 140.274 345.841 145.979C343.157 151.684 340.217 157.389 337.022 162.966ZM350.783 157.431C353.083 163.136 355.043 168.841 356.661 174.376C351.081 175.738 345.202 176.888 339.11 177.782C341.197 174.503 343.285 171.14 345.244 167.692C347.204 164.286 349.036 160.837 350.783 157.431ZM307.585 202.858C303.623 198.771 299.661 194.215 295.742 189.234C299.576 189.404 303.496 189.532 307.457 189.532C311.462 189.532 315.424 189.447 319.3 189.234C315.466 194.215 311.504 198.771 307.585 202.858ZM275.89 177.782C269.841 176.888 264.004 175.781 258.424 174.418C260 168.926 261.96 163.264 264.175 157.601C265.922 161.007 267.753 164.413 269.756 167.819C271.758 171.225 273.803 174.546 275.89 177.782ZM307.372 89.1848C311.334 93.2719 315.296 97.8273 319.215 102.809C315.381 102.638 311.462 102.51 307.5 102.51C303.496 102.51 299.534 102.596 295.657 102.809C299.491 97.8273 303.453 93.2719 307.372 89.1848ZM275.848 114.261C273.76 117.539 271.673 120.903 269.713 124.351C267.753 127.757 265.922 131.163 264.175 134.569C261.874 128.864 259.915 123.159 258.296 117.624C263.877 116.305 269.756 115.155 275.848 114.261V114.261ZM237.294 167.564C222.213 161.135 212.457 152.705 212.457 146.021C212.457 139.337 222.213 130.865 237.294 124.479C240.957 122.904 244.962 121.499 249.094 120.179C251.522 128.523 254.717 137.208 258.679 146.106C254.76 154.962 251.608 163.604 249.222 171.906C245.004 170.587 241 169.139 237.294 167.564ZM260.213 228.402C254.419 225.081 251.906 212.437 253.865 196.174C254.334 192.172 255.101 187.957 256.038 183.657C264.388 185.7 273.504 187.276 283.09 188.297C288.841 196.174 294.805 203.326 300.812 209.584C286.924 222.484 273.888 229.552 265.027 229.552C263.11 229.509 261.491 229.126 260.213 228.402V228.402ZM361.262 195.961C363.265 212.224 360.794 224.869 355.043 228.232C353.765 228.998 352.103 229.339 350.143 229.339C341.325 229.339 328.247 222.314 314.359 209.499C320.323 203.241 326.287 196.131 331.953 188.255C341.581 187.233 350.697 185.658 359.047 183.572C360.027 187.872 360.794 192.001 361.262 195.961V195.961ZM377.664 167.564C374 169.139 369.996 170.544 365.863 171.864C363.435 163.519 360.24 154.834 356.278 145.936C360.197 137.081 363.35 128.438 365.735 120.136C369.953 121.456 373.957 122.904 377.706 124.479C392.787 130.907 402.543 139.337 402.543 146.021C402.5 152.705 392.744 161.178 377.664 167.564V167.564Z" fill="#61DAFB"/>
<path d="M307.457 165.478C318.21 165.478 326.926 156.767 326.926 146.021C326.926 135.276 318.21 126.565 307.457 126.565C296.705 126.565 287.989 135.276 287.989 146.021C287.989 156.767 296.705 165.478 307.457 165.478Z" fill="#61DAFB"/>
<path d="M219.579 427.168C226.959 426.406 232.559 420.065 232.304 412.455C232.05 404.845 225.687 398.757 218.052 398.757H217.543C209.652 399.011 203.544 405.606 203.799 413.469C204.054 417.274 205.58 420.572 207.871 422.855C199.218 439.851 185.984 452.28 166.132 462.68C152.643 469.783 138.645 472.319 124.648 470.544C113.195 469.022 104.287 463.949 98.6867 455.577C90.543 443.148 89.7797 429.704 96.6516 416.26C101.487 406.62 109.122 399.518 113.958 395.966C112.94 392.669 111.412 387.089 110.649 383.03C73.7453 409.665 77.5633 445.685 88.7617 462.68C97.1601 475.364 114.212 483.227 133.046 483.227C138.136 483.227 143.226 482.72 148.316 481.452C180.894 475.11 205.581 455.831 219.579 427.168V427.168ZM264.373 395.713C245.03 373.137 216.525 360.708 183.948 360.708H179.876C177.585 356.142 172.749 353.098 167.405 353.098H166.895C159.006 353.351 152.898 359.946 153.152 367.811C153.407 375.42 159.77 381.508 167.405 381.508H167.913C173.512 381.254 178.348 377.703 180.384 372.883H184.966C204.309 372.883 222.633 378.464 239.177 389.371C251.902 397.742 261.064 408.65 266.154 421.84C270.48 432.494 270.226 442.894 265.644 451.773C258.519 465.217 246.557 472.573 230.777 472.573C220.597 472.573 210.926 469.529 205.835 467.246C203.036 469.783 197.945 473.841 194.382 476.378C205.327 481.451 216.525 484.242 227.214 484.242C251.647 484.242 269.717 470.797 276.589 457.353C283.969 442.64 283.46 417.274 264.373 395.713V395.713ZM135.082 431.479C135.337 439.089 141.699 445.176 149.334 445.176H149.844C157.734 444.923 163.841 438.328 163.587 430.464C163.333 422.854 156.97 416.767 149.334 416.767H148.826C148.316 416.767 147.552 416.767 147.045 417.02C136.609 399.771 132.283 381 133.81 360.707C134.827 345.487 139.918 332.297 148.826 321.389C156.206 312.003 170.459 307.437 180.13 307.184C207.108 306.677 218.56 340.16 219.324 353.604C222.633 354.365 228.232 356.141 232.05 357.41C228.995 316.317 203.544 295.009 179.112 295.009C156.206 295.009 135.082 311.497 126.683 335.849C114.976 368.317 122.611 399.518 136.863 424.123C135.591 425.898 134.827 428.689 135.082 431.48V431.479Z" fill="#764ABC"/>
<mask id="mask0" style="mask-type:alpha" maskUnits="userSpaceOnUse" x="371" y="291" width="155" height="193">
<path d="M376.977 468.466L371.007 309.497C370.81 304.247 374.838 299.798 380.086 299.47L515.401 291.019C520.742 290.686 525.343 294.742 525.677 300.079C525.689 300.28 525.696 300.482 525.696 300.683V473.908C525.696 479.255 521.357 483.59 516.005 483.59C515.86 483.59 515.715 483.587 515.571 483.581L386.226 477.776C381.189 477.55 377.167 473.501 376.977 468.466Z" fill="white"/>
</mask>
<g mask="url(#mask0)">
<path d="M376.977 468.466L371.007 309.497C370.81 304.247 374.838 299.798 380.086 299.47L515.401 291.019C520.742 290.686 525.343 294.742 525.677 300.079C525.689 300.28 525.696 300.482 525.696 300.683V473.908C525.696 479.255 521.357 483.59 516.005 483.59C515.86 483.59 515.715 483.587 515.571 483.581L386.226 477.776C381.189 477.55 377.167 473.501 376.977 468.466Z" fill="#FF4785"/>
<path d="M485.231 314.672L486.155 292.459L504.738 291L505.539 313.908C505.566 314.705 504.942 315.374 504.144 315.402C503.803 315.414 503.468 315.304 503.2 315.093L496.033 309.452L487.549 315.883C486.913 316.365 486.006 316.241 485.524 315.605C485.32 315.338 485.217 315.008 485.231 314.672ZM461.465 363.59C461.465 367.357 486.86 365.552 490.269 362.905C490.269 337.252 476.493 323.771 451.268 323.771C426.042 323.771 411.909 337.461 411.909 357.997C411.909 393.763 460.213 394.448 460.213 413.957C460.213 419.433 457.529 422.685 451.626 422.685C443.933 422.685 440.891 418.759 441.249 405.41C441.249 402.515 411.909 401.612 411.014 405.41C408.737 437.758 428.905 447.088 451.983 447.088C474.346 447.088 491.879 435.177 491.879 413.615C491.879 375.281 442.859 376.308 442.859 357.312C442.859 349.612 448.584 348.585 451.983 348.585C455.561 348.585 462.002 349.215 461.465 363.59Z" fill="white"/>
</g>
</svg>
